<svg xmlns="http://www.w3.org/2000/svg" viewBox="0 0 930.89 228.16"><defs><style>.cls-1{fill:#1d1f1c;}.cls-2{fill:#ec6142;fill-rule:evenodd;}.cls-3{fill:#fff;}</style></defs><g id="Calque_2" data-name="Calque 2"><g id="Calque_1-2" data-name="Calque 1"><path class="cls-1" d="M259.27,93.64V2h63.22V8.49H266.06V43.14h46.45V49.6H266.06V87.12h57.35v6.52Z"/><path class="cls-1" d="M343.43,93.64V2H350l62.31,80.38V2H419V93.64H412.6L350.22,13.13V93.64Z"/><path class="cls-1" d="M445.74,93.64V2h6.78V93.64Z"/><path class="cls-1" d="M254.12,206.7V115h67.33V139.5H281.32v9.79h30.86v22.64H281.32v10.31h41.11V206.7Z"/><path class="cls-1" d="M334.89,206.7V115h27.2l27.28,45.41V115h26.42V206.7h-24.6l-29.94-48.87V206.7Z"/><path class="cls-1" d="M428.25,160.64c0-26.42,20.62-47.43,47.89-47.43a47.83,47.83,0,0,1,30.86,11l-15.33,20.75c-3.79-2.94-9.85-5.68-15.53-5.68-10.63,0-20.29,9.33-20.29,21.46s9.72,21.6,20.29,21.6c5.87,0,9.66-1.17,15.73-5.81L507,197.37a48.1,48.1,0,0,1-78.75-36.73Z"/><path class="cls-1" d="M517.5,206.7V115h27.21v30.41h27.34V115h27.21V206.7H572.05V171.47H544.71V206.7Z"/><path class="cls-1" d="M615.69,206.7V115H683V139.5H642.9v9.79h30.86v22.64H642.9v10.31H684V206.7ZM643,108.83,626.2,91.35h24l11.68,17.48Z"/><path class="cls-1" d="M775.09,206.7H744.42l-13.37-28.25h-7.38V206.7H696.46V115h40.72c19.25,0,32.69,13.12,32.69,31.71,0,11.68-5.09,19.64-12.73,24.67Zm-51.42-67.14V154.7h11a7.87,7.87,0,0,0,7.64-7.89c0-5-3.92-7.25-7.37-7.25Z"/><path class="cls-1" d="M784,206.7V115h67.34V139.5H811.16v9.79H842v22.64H811.16v10.31h41.11V206.7Z"/><path class="cls-1" d="M857.48,191.57l17.16-18c7.12,6.39,13.51,9.66,20.75,9.66,6.4,0,7.9-2.16,7.9-4.31s.13-4.57-13.18-8.61c-9.92-3.07-26-10.31-26-29.49,0-13.51,7.83-27.67,31.39-27.67,15.27,0,25.7,5.35,34.51,13.44l-15.2,18.73c-3.72-3.4-11-7.51-18.14-7.51-4.24,0-5.28,1.7-5.28,4,0,2.15,3.52,3.33,12.33,6.72,17.42,6.39,27.21,14.35,27.21,29.82,0,17.74-13.25,30-34.78,30C881,208.4,868.12,202.53,857.48,191.57Z"/><path class="cls-2" d="M188.4,5.27A17.91,17.91,0,0,0,175.7,0H18A18,18,0,0,0,0,18V175.7a18,18,0,0,0,18,18H53.86l0,21.52,0,13,11-6.92L103,193.53l73.06.11a18.77,18.77,0,0,0,12.43-5.41l0,0a17.57,17.57,0,0,0,5.2-12.5V18A17.93,17.93,0,0,0,188.4,5.27Z"/><path class="cls-3" d="M151.66,117.23a13.83,13.83,0,0,1-13.83,13.82H47.59l18.2-18.2-6.51-6.52L33.21,132.4a4.6,4.6,0,0,0,0,6.51L59.28,165l6.51-6.52-18.2-18.2h90.24a23.06,23.06,0,0,0,23-23V98.8h-9.21Z"/><path class="cls-3" d="M41.08,80.37A13.83,13.83,0,0,1,54.9,66.54h90.24l-18.2,18.2,6.52,6.52,26.06-26.07a4.6,4.6,0,0,0,0-6.51L133.46,32.61l-6.52,6.52,18.2,18.2H54.9a23.07,23.07,0,0,0-23,23V98.8h9.22Z"/></g></g></svg>