<svg xmlns="http://www.w3.org/2000/svg" viewBox="0 0 935.32 274.18"><defs><style>.cls-1{font-size:130.49px;fill:#1d1f1c;font-family:CocoSharp-Light;font-weight:300;}.cls-2{font-family:CocoSharp-Heavy;font-weight:800;}.cls-3{fill:#ec6142;fill-rule:evenodd;}.cls-4{fill:#fff;}</style></defs><g id="Calque_2" data-name="Calque 2"><g id="Calque_1-2" data-name="Calque 1"><text class="cls-1" transform="translate(245.89 111.08)">ENI<tspan class="cls-2"><tspan x="0" y="113.06">ENCHÈRES</tspan></tspan></text><path class="cls-3" d="M188.4,22.71a17.91,17.91,0,0,0-12.7-5.27H18a18,18,0,0,0-18,18V193.14a18,18,0,0,0,18,18H53.86l0,21.52,0,13,11-6.92L103,211l73.06.12a18.77,18.77,0,0,0,12.43-5.41l0,0a17.57,17.57,0,0,0,5.2-12.5V35.41A17.93,17.93,0,0,0,188.4,22.71Z"/><path class="cls-4" d="M151.66,134.66a13.83,13.83,0,0,1-13.83,13.83H47.59l18.2-18.2-6.51-6.52L33.21,149.84a4.6,4.6,0,0,0,0,6.51l26.07,26.07,6.51-6.52-18.2-18.2h90.24a23.06,23.06,0,0,0,23-23V116.23h-9.21Z"/><path class="cls-4" d="M41.08,97.8A13.82,13.82,0,0,1,54.9,84h90.24l-18.2,18.2,6.52,6.52,26.06-26.07a4.6,4.6,0,0,0,0-6.51L133.46,50.05l-6.52,6.52,18.2,18.2H54.9a23.06,23.06,0,0,0-23,23v18.43h9.22Z"/></g></g></svg>